<svg xmlns="http://www.w3.org/2000/svg" width="150" height="50" viewBox="0,0,150,50"><path fill="#d18be8" d="M46.60 19.64L46.65 19.69L46.73 19.77Q44.71 19.84 43.76 19.99L43.69 19.93L43.67 19.90Q42.05 20.16 40.84 20.69L40.83 20.68L40.78 20.63Q37.42 22.23 37.31 26.91L37.20 26.80L37.27 26.87Q37.06 29.40 37.71 32.33L37.81 32.43L37.74 32.36Q38.69 36.48 42.31 37.66L42.31 37.66L42.25 37.60Q44.29 38.31 45.74 38.16L45.72 38.13L45.99 37.95L46.07 38.03Q46.23 38.00 46.42 38.04L46.37 37.99L46.41 38.03Q46.67 38.14 46.83 38.10L46.68 37.95L46.67 37.94Q49.29 37.67 50.66 37.10L50.76 37.20L47.14 33.62L47.25 33.73Q47.45 33.29 48.06 32.68L48.19 32.80L49.01 31.80L48.93 31.72Q50.85 33.87 52.83 35.92L52.84 35.93L52.80 35.89Q55.23 34.17 55.49 28.80L55.43 28.73L55.50 28.81Q55.59 27.91 55.59 27.00L55.52 26.93L55.49 26.89Q55.46 21.19 50.39 20.08L50.45 20.14L50.53 20.22Q49.05 19.73 46.54 19.58ZM59.46 41.79L59.43 41.76L59.29 41.62Q58.78 42.13 57.60 43.01L57.58 42.99L53.30 39.43L53.25 39.38Q50.75 40.58 46.49 40.62L46.53 40.66L46.40 40.53Q39.91 40.70 37.09 38.45L37.19 38.55L37.16 38.52Q35.27 36.64 34.82 33.67L34.86 33.71L34.79 33.64Q34.63 31.88 34.25 28.30L34.24 28.29L34.36 28.42Q34.21 27.54 34.10 25.79L34.27 25.97L34.25 25.95Q34.13 24.41 34.16 23.53L34.12 23.49L34.16 23.53Q34.13 20.34 35.88 18.78L35.94 18.84L35.97 18.87Q37.50 17.55 40.70 17.05L40.60 16.95L40.67 17.02Q43.03 16.52 45.92 16.60L46.10 16.78L46.11 16.79Q53.60 16.89 56.72 19.25L56.63 19.16L56.74 19.27Q58.83 21.33 58.57 26.24L58.49 26.17L58.45 26.12Q58.26 29.78 58.07 31.11L58.22 31.26L58.18 31.22Q57.54 35.72 55.22 38.04L55.29 38.12L55.14 37.96Q56.62 39.22 59.36 41.69ZM54.60 17.51L54.54 17.45L54.57 17.49Q52.58 16.79 46.07 16.29L46.01 16.24L46.04 16.26Q44.69 16.33 41.92 16.44L41.96 16.49L41.88 16.41Q37.75 16.72 35.50 18.70L35.33 18.54L35.32 18.52Q33.76 20.08 33.76 23.24L33.75 23.23L33.68 23.17Q33.66 23.99 33.82 25.70L33.95 25.83L33.91 25.79Q34.08 27.53 34.08 28.40L34.05 28.37L33.99 28.31Q34.28 30.19 34.66 33.77L34.58 33.69L34.62 33.74Q34.88 36.51 36.48 38.57L36.57 38.66L36.42 38.51Q36.76 39.34 37.97 40.48L38.11 40.62L37.97 40.48Q40.85 42.63 46.02 42.89L45.99 42.86L45.93 42.80Q46.34 42.87 48.74 42.98L48.80 43.04L48.67 42.92Q53.60 43.20 55.88 42.13L55.72 41.97L55.74 41.99Q56.65 42.71 61.37 46.29L61.43 46.34L61.34 46.26Q62.11 45.88 63.40 44.89L63.39 44.88L63.37 44.86Q62.43 44.11 61.63 43.42L61.70 43.50L59.97 41.96L60.16 41.99L60.00 41.83Q59.45 41.40 58.24 40.37L58.37 40.51L58.33 40.47Q60.24 37.96 60.24 33.43L60.13 33.32L60.24 33.43Q60.20 32.97 60.24 32.13L60.28 32.18L60.22 32.11Q60.27 31.30 60.27 30.88L60.19 30.80L60.31 30.92Q60.23 25.32 59.51 22.96L59.47 22.91L59.63 23.08Q59.06 21.59 58.18 20.52L58.22 20.56L58.29 20.63Q57.38 18.39 54.45 17.36ZM48.57 22.06L48.62 22.12L48.54 22.04Q52.69 22.03 54.51 23.63L54.48 23.60L54.49 23.61Q54.99 24.76 55.11 26.09L55.18 26.16L55.16 26.14Q55.11 27.28 55.03 28.65L55.13 28.74L55.06 28.67Q54.83 33.73 52.89 35.44L52.83 35.39L52.89 35.45Q51.57 34.12 49.05 31.38L49.10 31.43L49.12 31.45Q48.17 32.02 46.61 33.58L46.73 33.70L46.68 33.66Q47.21 34.22 48.35 35.40L48.31 35.36L48.33 35.49L48.37 35.54Q48.86 35.98 49.88 37.05L49.95 37.11L49.98 37.14Q48.90 37.32 46.58 37.63L46.69 37.73L46.13 37.71L45.75 37.75L45.59 37.62L45.62 37.65Q42.26 37.76 40.28 36.13L40.21 36.06L40.23 36.07Q39.14 33.92 39.18 30.80L39.18 30.80L39.18 30.80Q39.26 22.01 48.44 21.93Z"/><path d="M4 10 C81 16,71 35,148 41" stroke="#eaea7a" fill="none"/><path d="M2 13 C71 8,59 5,146 6" stroke="#e85de8" fill="none"/><path fill="#a3db6b" d="M119.38 39.95L119.37 39.94L119.45 40.01Q115.25 39.43 113.42 37.99L113.43 37.99L113.25 37.81Q111.44 36.39 111.02 33.38L111.18 33.54L111.03 33.39Q111.10 33.11 110.75 28.35L110.62 28.22L110.62 28.22Q110.75 27.13 110.68 25.88L110.74 25.94L110.76 25.96Q110.53 20.86 112.74 19.11L112.67 19.04L112.65 19.02Q115.31 16.92 123.07 16.23L123.16 16.32L123.07 16.23Q124.45 16.13 126.09 16.17L126.13 16.20L126.18 16.25Q126.22 16.30 129.19 16.30L129.18 16.28L129.08 16.18Q129.93 16.20 131.64 16.35L131.74 16.45L131.70 16.40Q131.14 17.30 130.11 20.38L130.15 20.41L130.05 20.32Q127.99 19.13 124.98 19.13L125.09 19.24L125.03 19.18Q124.22 19.13 123.42 19.20L123.51 19.29L123.38 19.16Q118.38 19.73 115.87 21.71L115.88 21.72L115.94 21.77Q113.74 23.19 113.59 26.54L113.62 26.57L113.78 26.73Q113.65 27.25 113.68 28.50L113.64 28.46L113.59 28.41Q113.76 33.30 116.16 35.39L116.13 35.36L116.22 35.46Q118.28 37.28 123.26 37.59L123.37 37.70L123.36 37.68Q126.38 37.74 129.39 35.95L129.53 36.08L129.43 35.99Q130.00 38.69 130.61 40.06L130.70 40.15L130.79 40.24Q128.63 40.44 126.99 40.40L126.87 40.28L127.05 40.46Q122.42 40.24 119.29 39.86ZM134.51 43.70L134.54 43.73L134.41 43.59Q132.77 40.74 132.09 38.15L132.05 38.11L132.06 38.12Q131.51 38.26 130.52 38.64L130.65 38.77L130.56 38.68Q130.22 37.88 130.03 37.04L130.07 37.08L129.65 35.33L129.68 35.36Q126.39 37.40 123.27 37.29L123.20 37.22L123.23 37.25Q119.01 37.10 116.69 35.35L116.79 35.45L116.74 35.41Q115.58 33.56 115.66 30.63L115.69 30.66L115.63 30.60Q115.71 26.04 118.19 23.91L118.20 23.92L118.21 23.93Q120.33 22.01 125.01 21.40L125.13 21.52L125.10 21.50Q125.89 21.37 126.61 21.37L126.54 21.30L126.55 21.31Q129.30 21.27 131.39 22.80L131.44 22.84L131.51 22.92Q131.97 20.75 133.19 17.52L133.14 17.47L133.21 17.54Q132.85 17.44 132.29 17.38L132.45 17.53L132.26 17.35Q131.76 17.34 131.50 17.34L131.57 17.42L131.56 17.41Q131.71 16.83 132.16 15.84L132.18 15.86L132.14 15.81Q131.90 15.81 129.41 15.73L129.46 15.79L129.42 15.75Q127.05 15.79 126.40 15.83L126.42 15.84L126.29 15.71Q115.75 16.02 112.28 18.61L112.37 18.70L112.43 18.76Q110.29 20.47 110.29 24.39L110.32 24.42L110.33 24.42Q110.34 25.54 110.45 28.24L110.48 28.27L110.37 28.16Q110.51 31.73 110.74 33.44L110.72 33.42L110.80 33.50Q111.24 36.68 112.84 38.21L112.84 38.21L112.78 38.14Q113.29 38.85 114.55 39.99L114.47 39.91L114.53 39.97Q117.89 41.85 123.15 42.61L123.14 42.60L123.08 42.55Q129.54 43.52 134.53 43.71Z"/><path d="M12 45 C75 18,93 29,131 48" stroke="#69e7e7" fill="none"/><path fill="#88e688" d="M100.32 41.35L100.17 41.20L97.31 41.19L97.16 41.04Q94.87 41.04 94.07 40.93L94.09 40.95L93.95 40.80Q92.25 40.58 91.07 39.71L90.93 39.57L91.09 39.73Q89.78 38.31 89.55 34.96L89.58 34.98L89.51 34.92Q89.48 34.43 89.40 33.21L89.29 33.10L89.31 33.12Q89.41 32.80 89.34 31.70L89.28 31.64L89.39 31.75Q89.19 30.75 89.23 30.03L89.28 30.08L89.31 30.10Q89.43 28.10 90.46 27.34L90.45 27.33L90.42 27.30Q92.49 26.29 97.33 26.06L97.23 25.96L97.32 26.05Q99.40 26.00 100.20 26.00L100.20 26.00L100.19 25.99Q101.55 25.87 102.92 26.17L103.03 26.28L102.93 26.18Q102.34 27.41 101.80 29.24L101.88 29.31L101.92 29.36Q101.45 29.45 100.95 29.42L100.83 29.30L100.84 29.30Q100.77 29.31 100.24 29.20L100.28 29.24L99.34 29.02L99.25 28.93Q98.17 28.66 97.56 28.70L97.65 28.78L97.55 28.68Q92.81 28.73 92.20 31.55L92.37 31.72L92.31 31.66Q91.96 32.72 92.04 33.67L91.99 33.63L92.15 33.79Q92.29 36.37 93.53 37.45L93.47 37.39L93.53 37.45Q94.65 38.42 97.24 38.46L97.24 38.46L97.27 38.49Q98.84 38.61 99.57 38.31L99.45 38.19L100.58 37.80L100.45 37.67Q101.00 37.46 101.58 37.39L101.59 37.40L101.57 37.38Q101.84 39.21 102.22 40.51L102.24 40.53L102.33 40.62Q102.11 41.00 100.32 41.34ZM103.45 44.17L103.44 44.16L103.46 44.19Q103.92 44.31 104.76 44.38L104.78 44.40L104.66 44.28Q105.29 44.30 105.63 43.73L105.70 43.80L105.60 43.70Q104.46 41.69 103.97 39.59L103.91 39.53L103.91 39.53Q103.70 39.63 103.25 39.63L103.22 39.60L103.22 39.60Q102.82 39.62 102.44 39.81L102.45 39.83L102.31 39.68Q101.98 38.44 101.83 37.04L101.86 37.06L101.88 37.08Q101.26 36.99 100.04 37.56L100.10 37.62L99.96 37.49Q98.85 38.16 98.35 38.16L98.29 38.10L98.23 38.04Q97.89 38.19 97.28 38.16L97.23 38.11L97.24 38.11Q96.31 38.06 94.33 37.49L94.38 37.54L94.30 37.46Q94.02 36.80 94.05 35.65L94.02 35.62L94.10 35.70Q94.26 31.44 99.21 30.91L99.18 30.88L99.18 30.88Q99.94 30.95 101.31 31.30L101.35 31.33L101.24 31.22Q102.55 31.51 103.28 31.47L103.29 31.49L103.43 31.63Q103.68 29.21 104.36 27.38L104.42 27.44L104.37 27.39Q104.15 27.44 103.77 27.36L103.61 27.21L103.03 27.30L102.88 27.15Q103.13 26.73 103.51 25.85L103.43 25.77L103.51 25.84Q102.05 25.56 100.49 25.56L100.38 25.46L100.41 25.49Q98.08 25.55 93.70 25.93L93.66 25.89L93.60 25.84Q91.67 26.00 90.11 26.99L90.18 27.06L90.23 27.11Q88.95 28.00 88.95 29.90L88.95 29.90L89.01 29.96Q88.96 30.33 89.08 31.55L89.07 31.55L89.05 31.52Q89.20 32.63 89.16 33.24L89.11 33.18L89.00 33.07Q89.06 35.00 89.79 38.73L89.82 38.77L89.90 38.85Q90.22 39.63 90.72 40.12L90.70 40.10L91.04 40.44L91.02 40.39L91.07 40.44Q92.09 42.56 96.01 43.17L95.89 43.05L95.97 43.12Q99.08 43.57 101.74 43.84L101.81 43.90L101.80 43.90Q102.52 43.89 103.43 44.16Z"/><path d="M16 3 C57 42,59 41,130 43" stroke="#6c4ad3" fill="none"/><path d="M8 28 C80 48,63 42,136 40" stroke="#a9eb93" fill="none"/><path fill="#bfe896" d="M74.87 27.13L74.82 27.08L74.86 27.12Q75.73 27.19 77.14 27.04L77.16 27.05L77.09 26.98Q77.10 27.68 77.10 28.33L77.17 28.39L77.18 29.66L77.04 29.53Q76.22 29.54 75.38 29.61L75.36 29.60L75.33 29.57Q74.64 29.75 73.80 29.71L73.71 29.62L73.72 29.64Q70.89 35.82 67.46 40.43L67.49 40.45L67.52 40.49Q65.02 41.15 63.73 41.76L63.70 41.73L63.74 41.77Q67.81 36.02 70.86 29.74L70.72 29.60L68.24 29.75L68.27 29.78Q68.23 28.40 68.12 27.07L68.03 26.98L68.00 26.96Q69.88 27.08 71.93 27.08L72.12 27.27L74.02 23.57L74.02 23.57Q74.89 21.55 76.11 19.96L76.17 20.01L76.09 19.93Q74.63 20.19 73.03 20.19L72.89 20.05L72.99 20.15Q66.98 20.23 63.21 18.02L63.17 17.97L62.44 16.18L62.37 16.11Q62.10 15.35 61.72 14.47L61.68 14.43L61.65 14.40Q66.12 17.16 71.83 17.39L71.78 17.34L71.80 17.36Q76.85 17.50 81.99 15.52L82.15 15.67L82.17 15.69Q81.93 16.06 81.43 16.94L81.29 16.80L81.35 16.86Q77.83 21.71 74.98 27.23ZM82.95 18.22L82.88 18.16L84.04 16.31L83.97 16.24Q82.99 16.71 81.32 17.43L81.35 17.47L81.56 17.18L81.50 17.12Q81.57 16.92 81.68 16.81L81.87 16.99L81.78 16.91Q82.24 16.30 82.96 14.97L82.96 14.96L82.89 14.89Q77.62 17.23 71.87 17.01L71.82 16.95L71.81 16.94Q65.78 16.66 61.02 13.69L60.98 13.66L61.01 13.69Q62.11 15.62 62.95 18.29L62.85 18.19L62.92 18.26Q64.05 18.94 64.85 19.24L64.81 19.19L64.73 19.12Q64.96 19.54 65.42 21.41L65.39 21.37L65.33 21.31Q68.50 22.59 74.02 22.43L74.13 22.54L74.03 22.44Q73.81 23.09 71.83 26.86L71.77 26.80L71.78 26.82Q69.71 26.80 67.73 26.61L67.70 26.58L67.66 26.54Q67.89 27.53 67.89 28.40L67.90 28.42L67.87 30.10L69.43 29.98L69.46 31.42L69.53 31.50Q65.65 38.92 62.87 42.50L62.72 42.35L62.83 42.46Q64.39 41.65 66.02 41.16L66.06 41.20L66.13 41.27Q65.27 42.00 63.90 43.72L64.05 43.86L63.93 43.75Q67.12 42.68 69.56 42.45L69.61 42.50L69.68 42.57Q72.48 38.66 75.60 31.89L75.65 31.94L79.01 32.07L79.16 32.21Q79.05 31.27 79.05 30.36L79.04 30.35L78.95 28.47L79.05 28.57Q78.76 28.54 78.21 28.58L78.16 28.53L78.15 28.53Q77.67 28.63 77.40 28.63L77.35 28.58L77.33 28.55Q77.26 28.38 77.30 28.22L77.48 28.40L77.45 28.11L77.48 28.14Q79.97 22.97 83.05 18.33Z"/><path d="M10 49 C72 21,85 9,144 36" stroke="#e38e72" fill="none"/><path fill="#83baf1" d="M18.98 19.33L19.02 19.38L19.10 19.45Q19.88 23.62 20.04 27.20L20.00 27.16L20.07 27.23Q21.12 27.26 22.18 27.26L22.27 27.34L24.34 27.20L24.47 27.34Q25.41 27.21 26.28 25.80L26.23 25.75L26.20 25.72Q27.10 24.72 27.22 23.53L27.04 23.35L27.03 23.35Q27.53 20.46 23.31 19.97L23.35 20.01L23.28 19.94Q21.72 20.02 19.09 19.45ZM19.99 29.89L19.98 29.89L20.12 30.03Q19.87 36.05 18.72 40.47L18.77 40.52L18.73 40.48Q17.34 40.95 15.01 42.02L15.15 42.15L15.15 42.15Q17.35 35.33 17.08 28.06L17.11 28.09L17.10 28.07Q16.84 20.73 14.06 14.29L13.98 14.22L14.00 14.24Q18.20 17.06 24.44 17.06L24.48 17.11L24.39 17.01Q30.42 16.99 30.58 20.46L30.73 20.62L30.73 20.62Q30.83 23.07 29.84 25.74L29.66 25.56L29.73 25.63Q29.30 26.72 28.34 27.94L28.33 27.93L28.34 27.93Q27.04 29.56 24.49 29.83L24.46 29.80L24.56 29.90Q22.24 29.86 19.99 29.90ZM26.26 32.29L26.08 32.10L26.10 32.12Q30.28 32.38 31.53 27.58L31.57 27.62L31.64 27.69Q32.58 24.02 32.42 22.00L32.34 21.92L32.28 21.86Q32.19 20.36 31.43 19.37L31.54 19.48L31.58 19.52Q31.16 19.11 30.67 18.88L30.65 18.86L30.75 18.96Q30.68 18.74 30.07 17.98L30.06 17.96L29.97 17.88Q28.43 16.56 24.47 16.56L24.46 16.55L24.52 16.61Q17.57 16.55 13.34 13.39L13.38 13.43L13.37 13.41Q16.59 20.56 16.86 28.02L16.91 28.08L16.90 28.06Q17.10 35.65 14.43 42.73L14.55 42.85L14.40 42.69Q15.51 42.10 16.50 41.72L16.48 41.69L16.14 42.87L16.18 42.91Q15.91 43.41 15.65 43.98L15.63 43.97L15.69 44.02Q18.11 42.98 21.00 42.45L20.94 42.38L21.02 42.46Q21.86 36.94 21.93 32.22L22.03 32.32L22.02 32.31Q23.13 32.24 24.12 32.24L24.13 32.25L24.08 32.20Q25.30 32.09 26.10 32.12ZM25.14 22.18L25.27 22.31L25.29 22.33Q25.67 22.21 26.66 22.44L26.80 22.58L26.66 22.44Q26.91 22.81 26.95 23.12L26.85 23.02L26.78 22.94Q26.87 23.26 26.80 23.53L26.80 23.53L26.91 23.65Q26.76 24.83 26.04 25.70L25.96 25.62L26.07 25.73Q25.32 26.63 24.30 26.82L24.41 26.93L24.28 26.81Q23.70 26.95 22.06 26.95L22.00 26.88L21.98 26.86Q22.01 24.64 21.78 22.28L21.69 22.20L23.43 22.26L23.44 22.27Q24.44 22.43 25.32 22.36Z"/></svg>